<?xml version="1.0" encoding="utf-8"?>
<!-- Generator: Adobe Illustrator 24.0.2, SVG Export Plug-In . SVG Version: 6.00 Build 0)  -->
<svg version="1.1" id="Layer_1" xmlns="http://www.w3.org/2000/svg" xmlns:xlink="http://www.w3.org/1999/xlink" x="0px" y="0px" viewBox="0 0 512 512" style="enable-background:new 0 0 512 512;" xml:space="preserve">
	<style type="text/css">
		.st0 {
			fill-rule: evenodd;
			clip-rule: evenodd;
			fill: white;
		}

		.st1 {
			fill: #232b2b;
		}
	</style>
	<g transform="matrix(1,0,0,1,274.652,265.67)">
		<circle class="st0" cx="-18.5633" cy="-9.9601" r="250.0002" />
	</g>
	<g>
		<path class="st1" d="M128.9142,365.7656c6.4256-5.644,13.2766-10.7109,20.5581-14.9089
		c11.5985-7.7846,24.0499-14.4514,37.178-19.1962c14.8696-5.3735,30.4066-8.644,45.2615-14.0663
		c33.1448-12.0979,58.1424-39.1549,64.014-74.5406c4.725-28.4744-4.9359-58.1871,4.1789-86.1153
		c0.0317-0.0972,0.1801-0.0689,0.159,0.0351c-6.198,29.8519,3.0299,60.0984-2.9184,89.8531
		c-5.3745,26.8833-22.7283,51.2569-46.4944,64.9483c-27.685,15.948-60.4621,18.9882-88.1986,35.2871
		c-4.1564,2.4425-8.1538,5.0058-12.0062,7.684c-9.1427,6.8152-17.6939,14.0172-25.6191,21.7438
		C122.6769,378.7372,119.5907,374.1773,128.9142,365.7656z" />
		<g>
			<g>
				<g>
					<path class="st1" d="M289.434,265.1287c5.3469-19.0458,26.3481-22.1296,41.9672-29.0959
					c21.5862-9.6278,30.5699-31.5422,36.8772-52.8582c0.3353-1.1332,1.4733-4.4518,1.1503-4.7274
					c0.1893,0.1614-4.9372,3.0681-4.6735,2.9361c-3.7593,1.8769-7.9552,2.8652-11.9977,3.8807
					c-13.3445,3.3526-23.3134,8.5143-31.5449,19.9017c-12.5168,17.3145-15.9514,39.6328-29.5861,56.2191
					c-0.3169,0.3855-0.9712,0.0089-0.6747-0.4278c11.7728-17.3336,16.286-38.3577,28.2676-55.473
					c4.8175-6.882,10.8869-13.1005,18.5194-16.8155c10.8013-5.2572,23.6586-4.3621,32.7907-13.0483
					c0.4943-0.4701,1.2482,0.0686,1.078,0.686c-5.0136,18.1537-10.7221,38.1291-24.9491,51.422
					c-16.5272,15.4417-48.8591,13.4434-56.9023,37.5035C289.6868,265.4384,289.3753,265.3381,289.434,265.1287L289.434,265.1287z" />
				</g>
				<g>
					<path class="st1" d="M370.4968,177.9081c-2.5715,6.0401-5.9231,11.5126-10.3947,16.3372
					c-6.3557,6.8568-14.5251,10.6314-21.7936,16.3198c-14.8887,11.6514-26.5923,28.3437-39.758,41.8857
					c-0.4653,0.479-1.3441-0.2299-0.9129-0.7607c10.8651-13.3724,21.7288-27.8924,34.9235-39.0666
					c6.1032-5.1685,13.2606-8.7572,19.6875-13.4635c7.7178-5.6512,13.5985-12.9017,17.9998-21.3682
					C370.3201,177.654,370.5585,177.7635,370.4968,177.9081L370.4968,177.9081z" />
				</g>
				<g>
					<path class="st1" d="M370.4313,177.6362c-4.0332,6.5218-8.8936,12.2327-15.206,16.6862
					c-9.4923,6.6971-20.5962,10.3541-29.5977,17.8842c-8.2728,6.9212-13.7644,15.3916-18.4495,24.958
					c-3.6423,7.4364-9.2584,13.2684-13.5945,20.2578c-0.1522,0.2453-0.5861,0.0604-0.4694-0.219
					c3.2865-7.859,9.4269-14.0591,13.0599-21.8291c3.4069-7.2856,7.3279-13.9336,12.9702-19.7277
					c6.2622-6.4304,13.7043-11.11,21.6688-15.1378c11.7268-5.9292,21.5589-12.246,29.4623-22.9716
					C370.3453,177.4425,370.4944,177.5342,370.4313,177.6362L370.4313,177.6362z" />
				</g>
				<g>
					<path class="st1" d="M369.9915,177.3261c-8.4348,10.8327-21.6974,13.6068-33.154,20.0907
					c-14.6339,8.282-22.4838,23.2178-30.8436,37.1275c-0.2517,0.4189-0.8174,0.0208-0.6226-0.3947
					c5.9651-12.7386,13.091-25.6856,24.5073-34.3572c12.4442-9.4525,29.0847-10.7696,39.9723-22.5834
					C369.9213,177.1331,370.0557,177.2436,369.9915,177.3261L369.9915,177.3261z" />
				</g>
				<g>
					<path class="st1" d="M369.0974,181.0138c-4.2362,14.784-13.3799,27.6526-25.2466,37.3247
					c-7.5097,6.1209-15.8248,11.182-23.5818,16.9717c-7.9177,5.9098-15.3492,12.4708-23.3475,18.2646
					c-0.4213,0.3046-0.961-0.233-0.5629-0.61c12.433-11.7708,26.6807-21.0636,40.5692-30.9455
					c15.0047-10.6761,25.2227-23.9687,31.9938-41.0615C368.9651,180.8483,369.1302,180.8985,369.0974,181.0138L369.0974,181.0138z" />
				</g>
			</g>
			<path class="st1" d="M292.9917,256.5887c2.8522-2.0291,6.2929-3.4373,9.7509-3.9913c10.5059-1.6821,18.4915,4.0479,28.4908,4.0974
			c7.2835,0.0362,14.5821-2.609,21.0165-6.0493c6.8919-3.6849,13.5768-8.6907,18.794-14.126
			c-1.824,1.9005-7.3132,3.3806-9.8502,4.154c-3.278,0.9998-6.6712,1.7053-9.9996,2.0021
			c-6.9472,0.6192-12.9927-1.3778-19.6929-1.5597C317.8214,240.7455,302.8436,247.0704,292.9917,256.5887" />
		</g>
		<g>
			<g>
				<g>
					<path class="st1" d="M219.4233,323.956c18.965-5.6273,32.7679,10.4984,46.9873,20.001
					c19.6514,13.1326,42.9818,9.054,64.3793,3.0293c1.1374-0.3203,4.5521-1.1257,4.6131-1.5464
					c-0.0362,0.2466-5.2279-2.5425-4.9754-2.3893c-3.5918-2.1805-6.6647-5.204-9.6786-8.0831
					c-9.9488-9.504-19.6295-15.1876-33.6521-16.0831c-21.3215-1.3622-42.0361,7.627-63.3371,4.9311
					c-0.4953-0.0628-0.525-0.8167,0.0024-0.799c20.9411,0.7222,41.1352-6.6644,62.003-5.6491
					c8.3908,0.408,16.8871,2.2289,24.0986,6.707c10.205,6.3372,16.3007,17.6929,28.518,20.7903
					c0.6611,0.1675,0.6069,1.0923-0.0058,1.2776c-18.033,5.4336-37.9766,11.2505-56.8072,6.298
					c-21.8745-5.7536-37.4165-34.1754-62.0606-28.1571C219.2957,324.3347,219.2148,324.0178,219.4233,323.956L219.4233,323.956z" />
				</g>
				<g>
					<path class="st1" d="M336.4285,346.056c-6.4815,1.0439-12.8986,1.1247-19.3641-0.0873
					c-9.1891-1.7227-16.737-6.6234-25.424-9.7414c-17.7942-6.3874-38.1557-7.3934-56.6315-11.315
					c-0.6533-0.1389-0.5216-1.2598,0.1573-1.1776c17.1058,2.0656,35.1814,3.5184,51.669,8.7268
					c7.626,2.4091,14.4773,6.5525,21.885,9.4818c8.8951,3.5181,18.1643,4.6295,27.6741,3.8408
					C336.5493,345.7711,336.5837,346.0314,336.4285,346.056L336.4285,346.056z" />
				</g>
				<g>
					<path class="st1" d="M336.6233,345.8561c-7.6677,0.0631-15.0907-1.005-22.2228-3.9725
					c-10.7266-4.4624-19.7386-11.9079-30.9084-15.5107c-10.265-3.311-20.3588-3.4427-30.9507-2.3081
					c-8.2332,0.8815-16.1612-0.7617-24.3862-0.7055c-0.2886,0.0024-0.3633-0.4636-0.0648-0.5137
					c8.4011-1.4082,16.9202,0.4827,25.4308-0.5844c7.9804-1.0009,15.6948-1.2267,23.605,0.4595
					c8.7784,1.8711,16.7049,5.6734,24.3576,10.2657c11.2673,6.7619,21.8526,11.7145,35.1401,12.685
					C336.7413,345.6801,336.743,345.8551,336.6233,345.8561L336.6233,345.8561z" />
				</g>
				<g>
					<path class="st1" d="M336.6512,345.3188c-13.6613-1.3635-23.0776-11.1063-34.67-17.3442
					c-14.8072-7.9678-31.6288-6.6487-47.8538-6.3082c-0.4885,0.0102-0.453-0.6802,0.0024-0.7372
					c13.9578-1.7425,28.7104-2.6138,42.1323,2.4237c14.6309,5.4912,24.6141,18.8691,40.4134,21.7848
					C336.7771,345.1564,336.7556,345.329,336.6512,345.3188L336.6512,345.3188z" />
				</g>
				<g>
					<path class="st1" d="M333.0547,346.5274c-14.7666,4.2956-30.529,3.4178-45.0378-1.4676
					c-9.1812-3.0917-17.8955-7.4292-26.929-10.907c-9.2201-3.5495-18.7326-6.3403-27.8979-10.0201
					c-0.4824-0.1938-0.3152-0.9368,0.2156-0.801c16.5866,4.2457,32.0436,11.3481,47.8071,17.8324
					c17.0311,7.0055,33.7241,8.5662,51.7956,5.1852C333.1243,346.3275,333.1693,346.494,333.0547,346.5274L333.0547,346.5274z" />
				</g>
			</g>
			<path class="st1" d="M228.5452,322.4145c3.237,1.3318,6.2625,3.4925,8.574,6.123c7.0236,7.9924,6.4314,17.8037,11.7189,26.2904
			c3.8517,6.1817,9.9798,10.9477,16.3201,14.5579c6.7913,3.8678,14.5896,6.8557,21.9693,8.3734
			c-2.58-0.5308-6.7582-4.3863-8.7647-6.1206c-2.5929-2.2406-4.9986-4.7356-7.0236-7.394
			c-4.227-5.5475-5.7594-11.7275-9.1771-17.4933C255.1846,334.9791,241.85,325.6767,228.5452,322.4145" />
		</g>
		<g>
			<g>
				<path class="st1" d="M268.2196,299.6868c11.5269-10.7409,30.5809-6.8377,42.8801,0.5434
				c0.2982,0.1791,0.1061,0.6222-0.2289,0.496c-13.4096-5.0467-29.9303-11.7285-42.5076-0.8852
				C268.2728,299.9188,268.1309,299.7697,268.2196,299.6868L268.2196,299.6868z" />
			</g>
			<g>
				<path class="st1" d="M287.3606,293.2022c4.9379-0.6198,10.3462-1.1772,14.8321-3.4352c0.2282-0.115,0.4677,0.2258,0.2906,0.4056
				c-3.3997,3.4587-10.6392,3.1708-15.103,3.2107C287.2647,293.3844,287.2426,293.2172,287.3606,293.2022L287.3606,293.2022z" />
			</g>
			<g>
				<path class="st1" d="M295.9142,292.0441c2.6776-2.1283,4.4153-4.3815,5.8866-7.4667c0.0805-0.1692,0.3466-0.0911,0.3163,0.0966
				c-0.5213,3.251-3.019,6.3621-6.0599,7.6352C295.8927,292.3784,295.7832,292.1481,295.9142,292.0441L295.9142,292.0441z" />
			</g>
			<g>
				<path class="st1" d="M298.1455,291.7541c4.0257-0.5564,9.2311,0.2101,12.668,2.4671c0.2115,0.1385,0.0345,0.5158-0.2067,0.4534
				c-2.0741-0.539-4.0193-1.4273-6.1158-1.9271c-2.0993-0.5004-4.2157-0.6277-6.3481-0.9033
				C298.0906,291.8377,298.0961,291.7609,298.1455,291.7541L298.1455,291.7541z" />
			</g>
			<g>
				<path class="st1" d="M303.9519,292.1491c2.5964-0.6427,4.5869-1.5945,6.7118-3.2312c0.2078-0.1596,0.4677,0.1313,0.308,0.3302
				c-1.6234,2.0229-4.4235,3.2428-7.0079,3.0177C303.9062,292.261,303.8933,292.1635,303.9519,292.1491L303.9519,292.1491z" />
			</g>
			<g>
				<path class="st1" d="M301.2092,296.6982c4.2649-0.7294,9.4532-0.5438,13.0876,2.0751c0.1518,0.1095-0.0103,0.3029-0.1607,0.2545
				c-4.431-1.4102-8.165-2.7212-12.9074-2.1478C301.1113,296.8936,301.095,296.7179,301.2092,296.6982L301.2092,296.6982z" />
			</g>
			<g>
				<path class="st1" d="M315.616,294.6213c-1.8701,1.4812-3.8842,2.246-6.2751,2.2825c-0.1924,0.0031-0.2289-0.2917-0.0321-0.3016
				c2.2501-0.1143,4.389-0.7863,6.2544-2.0553C315.6115,294.5142,315.6617,294.5848,315.616,294.6213L315.616,294.6213z" />
			</g>
			<g>
				<path class="st1" d="M307.7191,299.2635c2.8188,1.0197,5.2166,4.4886,4.9966,7.5435c-0.0082,0.1146-0.187,0.1559-0.246,0.0566
				c-0.6249-1.0463-0.8054-2.2829-1.2827-3.3997c-0.7287-1.7067-1.9001-3.1463-3.5447-4.0346
				C307.5386,299.373,307.6089,299.2239,307.7191,299.2635L307.7191,299.2635z" />
			</g>
			<g>
				<path class="st1" d="M311.0161,302.7563c2.29,0.8122,4.652,1.2745,6.9734,1.9619c0.1849,0.0549,0.1491,0.3156-0.0495,0.2995
				c-2.4473-0.1975-4.7785-1.0899-7.0133-2.0683C310.8002,302.8935,310.8889,302.7113,311.0161,302.7563L311.0161,302.7563z" />
			</g>
			<g>
				<path class="st1" d="M297.351,295.4465c1.9178,1.0497,3.3745,2.8048,4.6698,4.5343c1.2492,1.6668,2.2781,3.5699,1.8319,5.7072
				c-0.0522,0.2484-0.4193,0.2473-0.4513-0.0133c-0.4636-3.7654-3.047-7.8355-6.1629-10.0501
				C297.1419,295.5557,297.2456,295.3889,297.351,295.4465L297.351,295.4465z" />
			</g>
			<g>
				<path class="st1" d="M301.9038,300.2128c1.838,1.0718,3.7299,2.0792,5.4581,3.325c0.1661,0.1198-0.0102,0.4029-0.1924,0.306
				c-1.881-0.9992-3.6208-2.2525-5.394-3.427C301.662,300.3414,301.7848,300.1436,301.9038,300.2128L301.9038,300.2128z" />
			</g>
			<g>
				<path class="st1" d="M289.4726,293.734c1.8803-0.1153,3.209,1.0763,4.1281,2.6175c1.2226,2.0509,2.2624,4.3546,2.7768,6.6879
				c0.0498,0.2241-0.2995,0.292-0.3804,0.0914c-1.1694-2.9017-2.5571-9.169-6.5054-9.2161
				C289.3774,293.9142,289.3531,293.7415,289.4726,293.734L289.4726,293.734z" />
			</g>
			<g>
				<path class="st1" d="M294.2314,297.7379c1.517,0.918,3.176,1.8786,4.2986,3.2732c0.1511,0.1873-0.1122,0.3821-0.2859,0.2668
				c-1.4655-0.9722-2.7103-2.3108-4.1093-3.3871C294.055,297.8293,294.1416,297.6837,294.2314,297.7379L294.2314,297.7379z" />
			</g>
			<g>
				<path class="st1" d="M301.1543,299.4218c0.5001,1.3185-0.0543,2.9225-0.4507,4.2113c-0.4642,1.5095-1.1523,2.9508-2.0976,4.2157
				c-0.1234,0.1651-0.3961-0.0078-0.3057-0.1927c0.5393-1.1022,1.1193-2.1788,1.5853-3.3148
				c0.5598-1.3622,1.5542-3.3714,1.1271-4.8652C300.9861,299.3832,301.1192,299.3293,301.1543,299.4218L301.1543,299.4218z" />
			</g>
			<g>
				<path class="st1" d="M301.1594,282.83c-0.1382,0.2388-0.2756,0.4776-0.4131,0.7167c0.1024,0.4397,0.205,0.8794,0.3084,1.3188
				c-0.0403-0.0481-0.0806-0.0962-0.1208-0.1447c0.6472,0.1945,1.2943,0.3885,1.9414,0.5827
				c-0.0621,0.0327-0.1242,0.0652-0.1859,0.0979c0.3405-0.5547,0.6799-1.11,1.02-1.6647c0.002,0.073,0.0041,0.1463,0.0062,0.2194
				c-0.435-0.4609-0.8699-0.9214-1.3052-1.3819c0.0703,0.0181,0.1405,0.0361,0.2112,0.0549
				c1.5566,0.4049,1.7715,2.9675-0.0877,3.0443c-0.071,0.0031-0.1419,0.0061-0.2129,0.0092
				c-0.6761,0.0276-1.401-0.3166-1.631-0.9995c-0.6331-1.8796,1.518-3.4969,3.0763-2.0802c0.5605,0.5096,0.947,1.5167,0.508,2.2388
				c-0.0392,0.0645-0.0785,0.1293-0.118,0.1941c-0.3947,0.6498-1.1858,1.3243-2.0325,1.078
				c-0.071-0.0208-0.1416-0.0416-0.2122-0.0621C300.4369,285.6226,299.859,283.8613,301.1594,282.83L301.1594,282.83z" />
			</g>
			<g>
				<path class="st1" d="M301.5405,289.5227c0.2698-1.6395,2.8185-1.2223,2.5476,0.4196
				C303.8182,291.5818,301.27,291.1646,301.5405,289.5227L301.5405,289.5227z" />
			</g>
			<g>
				<path class="st1" d="M308.1598,288.0835c0.6031-3.6617,6.2943-2.7304,5.6901,0.9374
				C313.2465,292.6823,307.5553,291.7514,308.1598,288.0835L308.1598,288.0835z" />
			</g>
			<g>
				<path class="st1" d="M310.0466,295.5021c-0.0256-0.0294-0.0518-0.0583-0.0775-0.088c-1.3922-1.5788,2.0642-3.5911,2.6059-0.9924
				c0.0075,0.0362,0.015,0.0727,0.0225,0.1088C312.9162,296.0612,310.8671,296.4324,310.0466,295.5021L310.0466,295.5021z" />
			</g>
			<g>
				<path class="st1" d="M314.7338,294.0646c0.2378-1.4454,2.4845-1.0776,2.246,0.3698
				C316.7417,295.8798,314.4954,295.512,314.7338,294.0646L314.7338,294.0646z" />
			</g>
			<g>
				<path class="st1" d="M315.4771,298.2274c0.7246,1.225-0.6898,2.7632-1.8933,1.7654
				C312.0644,298.7337,314.5315,296.6285,315.4771,298.2274L315.4771,298.2274z" />
			</g>
			<g>
				<path class="st1" d="M316.8629,304.6674c0.3336-2.0236,3.4788-1.5089,3.1449,0.5178
				C319.6744,307.2088,316.5292,306.6944,316.8629,304.6674L316.8629,304.6674z" />
			</g>
			<g>
				<path class="st1" d="M310.1903,300.1855c0.2637-1.6006,2.7516-1.1936,2.4875,0.4097
				C312.4138,302.1962,309.9259,301.7888,310.1903,300.1855L310.1903,300.1855z" />
			</g>
			<g>
				<path class="st1" d="M310.2192,307.0137c0.5393-3.2759,5.6318-2.4429,5.0914,0.8388
				C314.771,311.1284,309.6786,310.295,310.2192,307.0137L310.2192,307.0137z" />
			</g>
			<g>
				<path class="st1" d="M306.61,303.6378c0.1938-1.1759,2.0209-0.8767,1.8271,0.3009
				C308.2434,305.1139,306.4163,304.8154,306.61,303.6378L306.61,303.6378z" />
			</g>
			<g>
				<path class="st1" d="M304.4725,305.6092c-0.2248-0.1276-0.4492-0.2552-0.6737-0.3831c-0.2886,0.1552-0.5775,0.3101-0.8658,0.4653
				c-0.0355,0.0938-0.0703,0.1876-0.1054,0.2821c0.0805,0.3435,0.1607,0.6874,0.2412,1.0316
				c0.2572,0.1364,0.5148,0.2726,0.772,0.409c0.3299-0.1767,0.6601-0.3541,0.9904-0.5312c-0.0515,0.0682-0.1024,0.1368-0.1539,0.205
				c0.0215-0.6174,0.0433-1.2349,0.0652-1.853c0.0372,0.0645,0.0751,0.129,0.1126,0.1938
				c-0.4718-0.2118-0.9439-0.4233-1.4157-0.6352c0.0737,0.0017,0.147,0.0034,0.2204,0.0051
				c-0.4186,0.3005-0.8372,0.6007-1.2561,0.9009c0.0256-0.0703,0.0512-0.1402,0.0771-0.2108
				c0.0504,0.5281,0.1009,1.0558,0.1511,1.5839c-0.0495-0.0549-0.0989-0.1095-0.1484-0.1648
				c0.4882,0.2194,0.977,0.438,1.4655,0.6574c0.2927-0.1859,0.5854-0.3725,0.8777-0.5588c0.0143-0.4247,0.0284-0.8488,0.0423-1.2731
				c-0.0894-0.1095-0.1787-0.2187-0.2678-0.3279c-0.408-0.1235-0.8163-0.2466-1.225-0.3698
				c0.0727-0.0031,0.145-0.0065,0.2173-0.0092c1.7306-0.0754,2.6035,2.5623,0.7498,3.1224
				c-1.5638,0.4728-3.1709-0.8351-2.494-2.5162c0.5748-1.4283,2.4961-1.6699,3.3516-0.4025
				c0.3029,0.4489,0.4189,1.0844,0.1511,1.5835c-0.0355,0.0658-0.0706,0.1317-0.1057,0.1972
				c-0.3098,0.5775-0.9852,1.0493-1.6757,0.8883c-0.7392-0.1719-1.2342-0.4861-1.4792-1.2369
				c-0.2279-0.698-0.002-1.3106,0.5332-1.7763c1.3754-1.196,3.6539,0.3667,2.7386,2.0516c-0.8413,1.5494-3.4659,0.8238-2.9989-1.004
				c0.1382-0.5414,0.6622-1.0916,1.2878-0.9234C304.0219,305.1091,304.3149,305.235,304.4725,305.6092L304.4725,305.6092z" />
			</g>
			<g>
				<path class="st1" d="M296.4566,307.7816c0.3681-2.2354,3.8429-1.6668,3.4741,0.5721
				C299.5623,310.5894,296.0878,310.0208,296.4566,307.7816L296.4566,307.7816z" />
			</g>
			<g>
				<path class="st1" d="M298.0456,301.1168c0.146-0.8859,1.5238-0.6608,1.3778,0.2272
				C299.2771,302.2303,297.8993,302.0048,298.0456,301.1168L298.0456,301.1168z" />
			</g>
			<g>
				<path class="st1" d="M293.7964,302.9085c0.4636-2.8134,4.8366-2.098,4.3723,0.7205
				C297.7054,306.4423,293.3321,305.7266,293.7964,302.9085L293.7964,302.9085z" />
			</g>
		</g>
		<g>
			<g>
				<path class="st1" d="M142.8307,358.3712c13.6262-7.9099,31.3362,0.1313,41.6868,10.0617
				c0.2511,0.2405-0.0351,0.6301-0.3336,0.4326c-11.9523-7.9013-26.5743-18.0882-41.2471-10.3121
				C142.8314,358.6093,142.726,358.4319,142.8307,358.3712L142.8307,358.3712z" />
			</g>
			<g>
				<path class="st1" d="M162.9347,356.3036c4.9519,0.4933,10.3486,1.1523,15.2244-0.0522c0.2484-0.0614,0.4056,0.3241,0.1931,0.4598
				c-4.0834,2.6169-11.078,0.7266-15.439-0.2265C162.8006,356.4595,162.816,356.292,162.9347,356.3036L162.9347,356.3036z" />
			</g>
			<g>
				<path class="st1" d="M171.5313,357.076c3.0838-1.4802,5.2787-3.2906,7.3992-5.9715c0.1163-0.147,0.3582-0.012,0.2869,0.1644
				c-1.2305,3.0538-4.3576,5.5321-7.6052,6.097C171.4364,357.3966,171.3805,357.1483,171.5313,357.076L171.5313,357.076z" />
			</g>
			<g>
				<path class="st1" d="M173.7715,357.2892c4.0486,0.3524,8.9534,2.257,11.8029,5.221c0.175,0.1822-0.0809,0.5107-0.3026,0.3961
				c-1.9025-0.9865-3.6013-2.2849-5.5345-3.2377c-1.9356-0.9552-3.9704-1.5498-5.9886-2.2924
				C173.6995,357.3584,173.7213,357.2847,173.7715,357.2892L173.7715,357.2892z" />
			</g>
			<g>
				<path class="st1" d="M179.3449,358.9648c2.6745-0.0495,4.8267-0.5345,7.262-1.6583c0.2384-0.1098,0.4271,0.2323,0.2269,0.391
				c-2.0325,1.6111-5.0334,2.1781-7.5032,1.384C179.2753,359.0638,179.2849,358.9658,179.3449,358.9648L179.3449,358.9648z" />
			</g>
			<g>
				<path class="st1" d="M175.6593,362.7906c4.3208,0.2371,9.3375,1.5709,12.2989,4.9324c0.1235,0.1402-0.0774,0.2927-0.2129,0.2125
				c-4.0069-2.36-7.3559-4.4685-12.1071-4.9638C175.5205,362.9595,175.5437,362.7845,175.6593,362.7906L175.6593,362.7906z" />
			</g>
			<g>
				<path class="st1" d="M190.1674,363.9682c-2.1525,1.0282-4.2863,1.3263-6.6255,0.8303c-0.1883-0.0396-0.1583-0.3353,0.0358-0.3012
				c2.2191,0.3889,4.4542,0.2091,6.5549-0.613C190.1871,363.8628,190.2202,363.9426,190.1674,363.9682L190.1674,363.9682z" />
			</g>
			<g>
				<path class="st1" d="M181.4361,366.7389c2.522,1.6204,4.0885,5.5356,3.1951,8.4649c-0.0338,0.1105-0.217,0.1105-0.2528,0.0014
				c-0.3763-1.1595-0.2773-2.4053-0.4943-3.6c-0.3312-1.8261-1.1537-3.4901-2.5592-4.7223
				C181.2362,366.8054,181.3375,366.6758,181.4361,366.7389L181.4361,366.7389z" />
			</g>
			<g>
				<path class="st1" d="M183.8741,370.8772c2.0522,1.3008,4.2522,2.2764,6.3628,3.4629c0.1685,0.0945,0.0758,0.3408-0.1146,0.2807
				c-2.3419-0.7361-4.4166-2.1246-6.3778-3.5754C183.6333,370.9631,183.7602,370.8048,183.8741,370.8772L183.8741,370.8772z" />
			</g>
			<g>
				<path class="st1" d="M172.1763,360.7128c1.6361,1.4495,2.666,3.4847,3.5447,5.4588c0.847,1.9025,1.4276,3.9868,0.5175,5.9716
				c-0.1061,0.2303-0.4639,0.1477-0.437-0.1136c0.3848-3.774-1.2294-8.3165-3.7746-11.1683
				C171.9478,360.7721,172.086,360.6326,172.1763,360.7128L172.1763,360.7128z" />
			</g>
			<g>
				<path class="st1" d="M175.5553,366.3718c1.5538,1.4536,3.1746,2.8563,4.5827,4.4552c0.1351,0.1535-0.0996,0.3903-0.2562,0.2552
				c-1.6115-1.3925-3.0293-3.0009-4.4968-4.5405C175.2909,366.4435,175.4546,366.2777,175.5553,366.3718L175.5553,366.3718z" />
			</g>
			<g>
				<path class="st1" d="M164.8754,357.2919c1.8592,0.3053,2.8897,1.7626,3.4431,3.4693c0.7358,2.2716,1.2376,4.7486,1.2209,7.1379
				c-0.0017,0.2292-0.3572,0.218-0.3916,0.0044c-0.495-3.089-0.4551-9.5077-4.2938-10.4312
				C164.7427,357.4461,164.757,357.2721,164.8754,357.2919L164.8754,357.2919z" />
			</g>
			<g>
				<path class="st1" d="M168.6252,362.253c1.2748,1.2325,2.6789,2.538,3.4635,4.1472c0.1057,0.2159-0.1945,0.3476-0.3384,0.1961
				c-1.2124-1.2734-2.1283-2.8549-3.253-4.2154C168.4331,362.3031,168.5498,362.1803,168.6252,362.253L168.6252,362.253z" />
			</g>
			<g>
				<path class="st1" d="M175.0006,365.4337c0.1948,1.3969-0.7031,2.8372-1.3758,4.0059c-0.7877,1.3683-1.779,2.6209-2.9818,3.6436
				c-0.1573,0.1337-0.3845-0.0955-0.2552-0.2559c0.7706-0.9541,1.5754-1.8752,2.2825-2.8792
				c0.8484-1.2035,2.2648-2.9416,2.1802-4.4931C174.8454,365.359,174.9866,365.3355,175.0006,365.4337L175.0006,365.4337z" />
			</g>
			<g>
				<path class="st1" d="M178.6937,349.2579c-0.1876,0.2023-0.3749,0.4046-0.5622,0.6069c0.0024,0.452,0.0048,0.9033,0.0072,1.355
				c-0.028-0.0559-0.0563-0.1119-0.0853-0.1678c0.5881,0.3333,1.1759,0.6662,1.7633,0.9995
				c-0.0676,0.0181-0.1354,0.0358-0.203,0.0539c0.4551-0.465,0.9098-0.9306,1.3645-1.3959
				c-0.0143,0.0717-0.0287,0.1436-0.0426,0.2149c-0.322-0.5458-0.6437-1.0916-0.9654-1.6375
				c0.0645,0.0331,0.129,0.0665,0.1938,0.1003c1.4276,0.7413,1.0674,3.2872-0.7625,2.9488
				c-0.0699-0.0126-0.1399-0.0259-0.2095-0.0385c-0.6652-0.1231-1.2953-0.6198-1.368-1.3369
				c-0.1996-1.9731,2.2573-3.0719,3.4615-1.3441c0.4336,0.6216,0.5861,1.689-0.0024,2.2955
				c-0.0522,0.0542-0.1051,0.1088-0.1579,0.1631c-0.5294,0.5461-1.4505,1.0275-2.2215,0.599
				c-0.0645-0.0362-0.1286-0.0717-0.1927-0.1075C177.3684,351.8201,177.1968,349.9749,178.6937,349.2579L178.6937,349.2579z" />
			</g>
			<g>
				<path class="st1" d="M177.5775,355.8683c0.6277-1.5385,3.0194-0.5656,2.3907,0.9756
				C179.3405,358.3821,176.9488,357.4089,177.5775,355.8683L177.5775,355.8683z" />
			</g>
			<g>
				<path class="st1" d="M184.351,355.9362c1.4021-3.4355,6.7435-1.2625,5.3394,2.1788
				C188.2884,361.5509,182.9466,359.3779,184.351,355.9362L184.351,355.9362z" />
			</g>
			<g>
				<path class="st1" d="M184.5417,363.5885c-0.0184-0.0338-0.0375-0.0682-0.0559-0.1027c-1.0063-1.8486,2.8109-3.0426,2.7611-0.3882
				c-0.0007,0.0365-0.0017,0.0737-0.0024,0.1109C187.2152,364.7719,185.1346,364.6781,184.5417,363.5885L184.5417,363.5885z" />
			</g>
			<g>
				<path class="st1" d="M189.4312,363.229c0.5533-1.356,2.6622-0.498,2.1079,0.8603
				C190.9854,365.4456,188.8769,364.5874,189.4312,363.229L189.4312,363.229z" />
			</g>
			<g>
				<path class="st1" d="M189.2306,367.4532c0.434,1.3557-1.2867,2.5408-2.2388,1.3
				C185.7906,367.1882,188.6643,365.6841,189.2306,367.4532L189.2306,367.4532z" />
			</g>
			<g>
				<path class="st1" d="M189.1501,374.0398c0.7747-1.8987,3.7272-0.6976,2.9508,1.2042
				C191.3262,377.1431,188.3744,375.942,189.1501,374.0398L189.1501,374.0398z" />
			</g>
			<g>
				<path class="st1" d="M183.6405,368.187c0.6127-1.502,2.9484-0.5523,2.3344,0.9524
				C185.3618,370.6418,183.0264,369.6917,183.6405,368.187L183.6405,368.187z" />
			</g>
			<g>
				<path class="st1" d="M182.1507,374.851c1.2543-3.0746,6.0343-1.1299,4.7779,1.9492
				C185.6743,379.8742,180.8943,377.9301,182.1507,374.851L182.1507,374.851z" />
			</g>
			<g>
				<path class="st1" d="M179.3828,370.7571c0.4503-1.1032,2.1651-0.4056,1.7142,0.6997
				C180.6467,372.5593,178.9318,371.862,179.3828,370.7571L179.3828,370.7571z" />
			</g>
			<g>
				<path class="st1" d="M176.8601,372.2038c-0.1907-0.1743-0.381-0.3486-0.5717-0.5226c-0.3155,0.0867-0.6318,0.1733-0.9473,0.2603
				c-0.0552,0.0843-0.1102,0.1678-0.1651,0.2518c0.0014,0.3531,0.0034,0.7061,0.0055,1.0596
				c0.2204,0.19,0.4411,0.3803,0.6618,0.5707c0.3613-0.0989,0.7222-0.1989,1.0835-0.2982
				c-0.0652,0.0553-0.1303,0.1109-0.1955,0.1658c0.1583-0.5974,0.3166-1.1947,0.4755-1.792
				c0.0218,0.0713,0.0443,0.1426,0.0669,0.2139c-0.4135-0.3115-0.8262-0.6226-1.2393-0.9344
				c0.071,0.0188,0.1426,0.0365,0.2136,0.0546c-0.4749,0.1996-0.9497,0.3995-1.4249,0.599
				c0.0409-0.0631,0.0812-0.1255,0.1221-0.1883c-0.0682,0.5257-0.1365,1.0517-0.2043,1.5777
				c-0.0365-0.0645-0.0723-0.1293-0.1088-0.1938c0.4274,0.3224,0.8556,0.6444,1.283,0.9668
				c0.3265-0.1163,0.6536-0.2333,0.9804-0.3496c0.1078-0.4111,0.2159-0.8215,0.3241-1.2318
				c-0.0628-0.1266-0.1259-0.2528-0.1883-0.3793c-0.3708-0.2112-0.7413-0.422-1.1121-0.6331
				c0.0716,0.0133,0.1426,0.0266,0.2139,0.0392c1.704,0.3118,1.9687,3.0774,0.0372,3.2114
				c-1.6303,0.1136-2.9065-1.5187-1.8725-3.0078c0.8777-1.2649,2.8048-1.0732,3.3571,0.3527
				c0.1958,0.5052,0.1675,1.1503-0.2047,1.5774c-0.0488,0.0563-0.0982,0.1129-0.147,0.1689
				c-0.4302,0.4943-1.1936,0.8041-1.8312,0.4936c-0.6826-0.3319-1.0947-0.7484-1.167-1.5351
				c-0.0668-0.731,0.2896-1.2779,0.9149-1.6129c1.6067-0.8607,3.4806,1.1694,2.2139,2.609
				c-1.1646,1.3236-3.5625,0.0327-2.7007-1.6456c0.2548-0.4974,0.8883-0.917,1.4611-0.614
				C176.5319,371.6161,176.7898,371.8044,176.8601,372.2038L176.8601,372.2038z" />
			</g>
			<g>
				<path class="st1" d="M168.5621,372.5399c0.8559-2.0973,4.1171-0.7706,3.2598,1.3304
				C170.9657,375.9682,167.7044,374.6412,168.5621,372.5399L168.5621,372.5399z" />
			</g>
			<g>
				<path class="st1" d="M171.5927,366.3957c0.3394-0.8317,1.6327-0.306,1.2929,0.5274
				C172.5461,367.7548,171.2529,367.2288,171.5927,366.3957L171.5927,366.3957z" />
			</g>
			<g>
				<path class="st1" d="M167.0515,367.1977c1.0773-2.64,5.1821-0.9705,4.1032,1.6743
				C170.0774,371.5124,165.9725,369.8422,167.0515,367.1977L167.0515,367.1977z" />
			</g>
		</g>
		<g>
			<g>
				<path class="st1" d="M297.4162,223.4937c0.0392-15.7556-15.7777-27.0747-29.5523-31.0755
				c-0.334-0.0972-0.5284,0.3452-0.2081,0.5049c12.8177,6.4027,28.9499,13.9745,29.5493,30.5699
				C297.2094,223.6121,297.4155,223.6148,297.4162,223.4937L297.4162,223.4937z" />
			</g>
			<g>
				<path class="st1" d="M289.1573,205.0483c-2.9024-4.0424-6.1707-8.3874-7.5646-13.2121c-0.0713-0.246-0.4837-0.1893-0.4953,0.0624
				c-0.2248,4.8444,4.9086,9.958,7.9136,13.2588C289.0894,205.2424,289.2269,205.1452,289.1573,205.0483L289.1573,205.0483z" />
			</g>
			<g>
				<path class="st1" d="M284.1915,197.9886c-0.2596-3.411,0.2112-6.2168,1.4734-9.3938c0.0692-0.174-0.1689-0.3162-0.2862-0.1658
				c-2.0294,2.5919-2.6128,6.5395-1.4788,9.635C283.9612,198.2311,284.2038,198.1554,284.1915,197.9886L284.1915,197.9886z" />
			</g>
			<g>
				<path class="st1" d="M282.887,196.155c-2.3289-3.3305-6.4304-6.6265-10.422-7.6124c-0.2453-0.0607-0.4015,0.3251-0.192,0.4595
				c1.8056,1.1547,3.7794,1.9772,5.5711,3.1749c1.7946,1.1994,3.3267,2.6646,4.9788,4.0411
				C282.8631,196.2519,282.9156,196.1959,282.887,196.155L282.887,196.155z" />
			</g>
			<g>
				<path class="st1" d="M278.6494,192.1654c-1.2936-2.3412-1.9492-4.4477-2.1935-7.1188c-0.0242-0.261-0.4145-0.2538-0.452-0.001
				c-0.3793,2.5657,0.6297,5.4486,2.552,7.1907C278.5989,192.2749,278.6788,192.218,278.6494,192.1654L278.6494,192.1654z" />
			</g>
			<g>
				<path class="st1" d="M277.1781,197.2695c-2.3644-3.6235-6.0278-7.3016-10.4196-8.1862
				c-0.1832-0.0368-0.2149,0.2132-0.0774,0.2906c4.0469,2.2907,7.5469,4.1373,10.351,8.0047
				C277.1014,197.4745,277.2416,197.3667,277.1781,197.2695L277.1781,197.2695z" />
			</g>
			<g>
				<path class="st1" d="M268.9063,185.293c0.1855,2.378,0.9937,4.3757,2.5926,6.1534c0.1289,0.1433,0.3698-0.0304,0.2432-0.1815
				c-1.446-1.7278-2.4074-3.7531-2.7454-5.9835C268.9882,185.223,268.9019,185.2343,268.9063,185.293L268.9063,185.293z" />
			</g>
			<g>
				<path class="st1" d="M270.8713,194.2399c-2.6642-1.3741-6.8384-0.7737-8.9285,1.4648c-0.0788,0.0839,0.0126,0.2429,0.1252,0.219
				c1.1923-0.2535,2.2215-0.9617,3.3653-1.3714c1.7466-0.6256,3.5989-0.7454,5.3687-0.1436
				C270.9132,194.4466,270.9753,194.2937,270.8713,194.2399L270.8713,194.2399z" />
			</g>
			<g>
				<path class="st1" d="M266.0685,194.1972c-2.1526-1.1274-4.0973-2.5452-6.18-3.7801c-0.1658-0.0986-0.3326,0.1051-0.1859,0.2395
				c1.8087,1.6606,4.0482,2.7635,6.2847,3.7371C266.1145,194.4483,266.1878,194.2596,266.0685,194.1972L266.0685,194.1972z" />
			</g>
			<g>
				<path class="st1" d="M280.7191,199.2477c-2.0731-0.6925-4.3505-0.5673-6.4999-0.3415c-2.071,0.2173-4.1666,0.7566-5.4302,2.537
				c-0.147,0.2071,0.1034,0.4755,0.3159,0.3217c3.077-2.2194,7.8181-3.0924,11.56-2.3132
				C280.7819,199.4756,280.8337,199.2859,280.7191,199.2477L280.7191,199.2477z" />
			</g>
			<g>
				<path class="st1" d="M274.1287,199.1501c-2.0355-0.6192-4.0609-1.3219-6.1493-1.7422c-0.2006-0.0403-0.2886,0.2811-0.0935,0.3493
				c2.0117,0.6997,4.1134,1.1237,6.1807,1.6252C274.199,199.4145,274.2607,199.19,274.1287,199.1501L274.1287,199.1501z" />
			</g>
			<g>
				<path class="st1" d="M287.3316,203.8608c-1.194-1.4573-2.9713-1.6214-4.726-1.2475c-2.3354,0.4981-4.7315,1.3018-6.7923,2.5107
				c-0.1978,0.1156-0.0106,0.4182,0.1917,0.3411c2.9228-1.1148,8.4621-4.3583,11.1806-1.4952
				C287.2644,204.0532,287.4073,203.9536,287.3316,203.8608L287.3316,203.8608z" />
			</g>
			<g>
				<path class="st1" d="M281.1602,203.0933c-1.7046-0.4878-3.5372-1.0514-5.323-0.9269c-0.2402,0.0167-0.204,0.3422-0.001,0.3913
				c1.7091,0.4138,3.5369,0.4165,5.2773,0.7106C281.213,203.285,281.2608,203.1223,281.1602,203.0933L281.1602,203.0933z" />
			</g>
			<g>
				<path class="st1" d="M275.2183,199.1614c-1.3069,0.5298-2.1062,2.027-2.7816,3.194c-0.7914,1.3666-1.3809,2.8508-1.6654,4.4044
				c-0.0372,0.203,0.275,0.2848,0.349,0.0928c0.4417-1.1445,0.8371-2.3016,1.3526-3.4161c0.6188-1.3366,1.416-3.4318,2.8021-4.1342
				C275.3606,199.2589,275.3104,199.1245,275.2183,199.1614L275.2183,199.1614z" />
			</g>
			<g>
				<path class="st1" d="M287.3821,187.8774c-0.0812,0.2634-0.1631,0.5271-0.2446,0.7901c-0.3927,0.2238-0.7846,0.4476-1.1769,0.671
				c0.0627-0.0034,0.1252-0.0068,0.188-0.0102c-0.5827-0.3421-1.165-0.685-1.7469-1.0271c0.0181,0.0672,0.0365,0.1351,0.0542,0.203
				c0.176-0.627,0.3517-1.2537,0.5274-1.88c-0.0549,0.0481-0.1102,0.0965-0.1648,0.1446c0.6338,0.0058,1.267,0.0113,1.9008,0.0174
				c-0.0614-0.0392-0.1221-0.0781-0.1839-0.1177c-1.3557-0.8661-3.3803,0.7184-2.173,2.1345
				c0.0461,0.0539,0.0924,0.1078,0.1382,0.162c0.4394,0.5148,1.1844,0.8122,1.8414,0.5165c1.809-0.8139,1.5327-3.4905-0.5656-3.6702
				c-0.7549-0.0645-1.7561,0.337-1.9874,1.1499c-0.0205,0.0723-0.0416,0.1453-0.0621,0.2187
				c-0.2081,0.731-0.1648,1.7695,0.5916,2.2232c0.0634,0.0379,0.1262,0.0754,0.1897,0.1129
				C285.8255,190.3059,287.5093,189.5322,287.3821,187.8774L287.3821,187.8774z" />
			</g>
			<g>
				<path class="st1" d="M282.2149,192.1484c1.019-1.3127-1.0196-2.8979-2.0399-1.5829
				C279.1567,191.8779,281.1949,193.4628,282.2149,192.1484L282.2149,192.1484z" />
			</g>
			<g>
				<path class="st1" d="M278.7705,186.3157c2.2747-2.9317-2.2774-6.472-4.5562-3.5355
				C271.939,185.7119,276.4918,189.2525,278.7705,186.3157L278.7705,186.3157z" />
			</g>
			<g>
				<path class="st1" d="M272.0471,189.9757c0.0389-0.001,0.0778-0.0017,0.1173-0.0031c2.1041-0.0522,1.2294-3.9554-1.0442-2.5854
				c-0.0314,0.0191-0.0635,0.0382-0.0948,0.0576C269.6862,188.2516,270.8071,190.0064,272.0471,189.9757L272.0471,189.9757z" />
			</g>
			<g>
				<path class="st1" d="M269.9144,185.5611c0.8986-1.1571-0.8988-2.5547-1.7985-1.3956
				C267.218,185.323,269.0155,186.7203,269.9144,185.5611L269.9144,185.5611z" />
			</g>
			<g>
				<path class="st1" d="M266.3564,187.846c-1.3911,0.3019-1.5576,2.3852-0.0072,2.5892
				C268.3056,190.6931,268.1719,187.4523,266.3564,187.846L266.3564,187.846z" />
			</g>
			<g>
				<path class="st1" d="M260.6915,191.2085c1.2574-1.6204-1.2588-3.5768-2.5179-1.954
				C256.9165,190.8746,259.4324,192.8313,260.6915,191.2085L260.6915,191.2085z" />
			</g>
			<g>
				<path class="st1" d="M268.515,193.0547c0.9944-1.2816-0.9954-2.8297-1.9919-1.5457
				C265.5284,192.7911,267.519,194.3384,268.515,193.0547L268.515,193.0547z" />
			</g>
			<g>
				<path class="st1" d="M263.4881,197.6758c2.0356-2.623-2.0379-5.7907-4.0765-3.1633
				C257.3761,197.1354,261.4495,200.3031,263.4881,197.6758L263.4881,197.6758z" />
			</g>
			<g>
				<path class="st1" d="M268.4175,198.0271c0.7304-0.9415-0.731-2.0779-1.4628-1.1353
				C266.2243,197.833,267.6858,198.9697,268.4175,198.0271L268.4175,198.0271z" />
			</g>
			<g>
				<path class="st1" d="M268.425,200.9349c0.2466,0.0781,0.493,0.1563,0.7386,0.234c0.0829,0.3169,0.1658,0.6342,0.2484,0.9511
				c-0.0454,0.0897-0.0904,0.1791-0.1358,0.2688c-0.3063,0.175-0.6134,0.3497-0.92,0.5247
				c-0.275-0.0962-0.5499-0.1921-0.8252-0.2876c-0.0945-0.3626-0.189-0.7253-0.2838-1.0875
				c-0.015,0.0843-0.0307,0.1678-0.0457,0.2521c0.4384-0.436,0.8764-0.8716,1.3151-1.3076c-0.073,0.0164-0.146,0.0324-0.219,0.0488
				c0.4759,0.2023,0.9521,0.4046,1.4283,0.6065c-0.0515-0.0529-0.1027-0.1058-0.1539-0.1576
				c0.0648,0.5107,0.129,1.022,0.1934,1.5334c0.0341-0.0672,0.0682-0.1334,0.1024-0.2003c-0.4213,0.322-0.8426,0.6441-1.2643,0.9658
				c0.0737-0.0007,0.1477-0.0014,0.2217-0.0027c-0.493-0.2091-0.9855-0.4186-1.4785-0.628
				c-0.0624-0.3408-0.1245-0.6823-0.1873-1.0234c0.3019-0.2988,0.6035-0.598,0.905-0.8968
				c0.1409-0.0089,0.2818-0.0171,0.4226-0.0263c0.3678,0.2156,0.7358,0.4312,1.1039,0.6468
				c-0.0467-0.0553-0.0941-0.1105-0.1409-0.1658c-1.1213-1.3198-3.6488-0.1672-2.7997,1.573
				c0.7167,1.4686,2.7683,1.7579,3.541,0.1184c0.6567-1.3925-0.4725-2.9658-1.9837-2.7315c-0.5352,0.0832-1.08,0.4302-1.2639,0.9657
				c-0.0242,0.071-0.0484,0.1416-0.0727,0.2119c-0.2128,0.6202-0.0996,1.4358,0.4875,1.8329
				c0.6294,0.425,1.1957,0.5741,1.9131,0.2436c0.6666-0.3077,0.9623-0.8897,0.9398-1.5989
				c-0.0576-1.8217-2.7529-2.4299-3.3663-0.6137c-0.5642,1.6705,1.7524,3.1016,2.7751,1.517
				c0.3033-0.4694,0.3504-1.2277-0.1982-1.5726C269.0981,200.9254,268.8064,200.7961,268.425,200.9349L268.425,200.9349z" />
			</g>
			<g>
				<path class="st1" d="M272.2822,208.2901c1.3888-1.7899-1.3908-3.951-2.7819-2.1584
				C268.1111,207.922,270.8907,210.0831,272.2822,208.2901L272.2822,208.2901z" />
			</g>
			<g>
				<path class="st1" d="M276.0885,202.5939c0.5509-0.7099-0.5509-1.5668-1.1025-0.8559
				C274.4351,202.4475,275.5369,203.3048,276.0885,202.5939L276.0885,202.5939z" />
			</g>
			<g>
				<path class="st1" d="M277.6642,206.9279c1.7476-2.2528-1.7504-4.9734-3.5014-2.7168
				C272.4149,206.464,275.9132,209.1846,277.6642,206.9279L277.6642,206.9279z" />
			</g>
		</g>
		<g>
			<g>
				<path class="st1" d="M211.4077,326.201c11.2758-11.0049,8.2813-30.2223,1.4925-42.8579
				c-0.1644-0.3067-0.6164-0.1354-0.5062,0.205c4.4047,13.6341,10.2947,30.4533-1.1332,42.5014
				C211.1788,326.1362,211.321,326.2853,211.4077,326.201L211.4077,326.201z" />
			</g>
			<g>
				<path class="st1" d="M218.7935,307.3885c0.8535-4.9024,1.6668-10.2783,4.1352-14.652c0.1255-0.2228-0.2033-0.4779-0.3913-0.3098
				c-3.6163,3.2322-3.6719,10.4772-3.9241,14.9341C218.6073,307.4762,218.7731,307.5059,218.7935,307.3885L218.7935,307.3885z" />
			</g>
			<g>
				<path class="st1" d="M220.3566,298.9001c2.2528-2.5739,4.5858-4.2024,7.7376-5.5257c0.1726-0.0727,0.1075-0.3422-0.0819-0.3207
				c-3.2718,0.3664-6.4982,2.7137-7.914,5.6908C220.0216,298.9056,220.2461,299.026,220.3566,298.9001L220.3566,298.9001z" />
			</g>
			<g>
				<path class="st1" d="M220.752,296.6848c0.7467-3.9944,0.2278-9.2307-1.863-12.7707c-0.1286-0.218-0.5137-0.059-0.4629,0.1845
				c0.4401,2.0973,1.2352,4.0827,1.6347,6.2004c0.4001,2.1212,0.4271,4.241,0.6011,6.384
				C220.666,296.7357,220.7428,296.7339,220.752,296.6848L220.752,296.6848z" />
			</g>
			<g>
				<path class="st1" d="M220.6329,290.8661c0.7652-2.5626,1.8104-4.506,3.5461-6.5508c0.1695-0.2002-0.1092-0.4735-0.3152-0.3234
				c-2.098,1.5259-3.4492,4.2645-3.3468,6.8571C220.519,290.9064,220.6159,290.9238,220.6329,290.8661L220.6329,290.8661z" />
			</g>
			<g>
				<path class="st1" d="M215.9587,293.3898c0.931-4.2256,0.992-9.4166-1.4515-13.1711c-0.1023-0.1566-0.3029-0.0041-0.262,0.148
				c1.1984,4.4934,2.331,8.2851,1.5331,12.9951C215.7588,293.4785,215.9338,293.5031,215.9587,293.3898L215.9587,293.3898z" />
			</g>
			<g>
				<path class="st1" d="M218.7171,279.0977c-1.5685,1.7981-2.4278,3.7736-2.5779,6.1599c-0.0123,0.1924,0.2807,0.2429,0.2999,0.0464
				c0.2211-2.2419,0.9938-4.3467,2.3494-6.1496C218.8239,279.1073,218.7553,279.0537,218.7171,279.0977L218.7171,279.0977z" />
			</g>
			<g>
				<path class="st1" d="M213.7052,286.7657c-0.8842-2.8642-4.2355-5.424-7.2975-5.3486c-0.1153,0.0027-0.1648,0.1791-0.0689,0.2426
				c1.0159,0.6737,2.2423,0.9132,3.3356,1.4426c1.6698,0.8088,3.0521,2.0475,3.862,3.732
				C213.5872,286.9404,213.7397,286.8776,213.7052,286.7657L213.7052,286.7657z" />
			</g>
			<g>
				<path class="st1" d="M210.373,283.3069c-0.7027-2.3262-1.0524-4.7076-1.6289-7.0591c-0.0461-0.1873-0.3081-0.1638-0.3016,0.0351
				c0.0808,2.4538,0.862,4.825,1.7333,7.1034C210.2253,283.5157,210.4119,283.4359,210.373,283.3069L210.373,283.3069z" />
			</g>
			<g>
				<path class="st1" d="M217.0261,297.303c-0.9576-1.9653-2.6417-3.5034-4.3078-4.8796c-1.6057-1.3267-3.4578-2.4449-5.6137-2.1004
				c-0.2504,0.0403-0.2668,0.407-0.0081,0.451c3.7391,0.6424,7.6819,3.4161,9.7462,6.633
				C216.9067,297.507,217.0787,297.4114,217.0261,297.303L217.0261,297.303z" />
			</g>
			<g>
				<path class="st1" d="M212.4809,292.5295c-0.9835-1.8868-1.8998-3.8248-3.0624-5.6099c-0.1115-0.1716-0.4025-0.0089-0.3145,0.1777
				c0.9091,1.9264,2.0782,3.7238,3.1674,5.5506C212.341,292.7649,212.5447,292.6516,212.4809,292.5295L212.4809,292.5295z" />
			</g>
			<g>
				<path class="st1" d="M218.3624,305.2541c0.2047-1.8732-0.9227-3.2564-2.4183-4.2478c-1.9908-1.3185-4.2427-2.4664-6.5487-3.091
				c-0.2211-0.06-0.306,0.2852-0.1092,0.3756c2.8427,1.3058,9.037,2.9897,8.8964,6.9356
				C218.1781,305.3404,218.3494,305.3731,218.3624,305.2541L218.3624,305.2541z" />
			</g>
			<g>
				<path class="st1" d="M214.5894,300.3104c-0.8453-1.5583-1.7261-3.2616-3.0658-4.4494c-0.1801-0.1593-0.3872,0.0941-0.2801,0.2736
				c0.9013,1.5099,2.1795,2.8167,3.1882,4.2652C214.4895,300.4827,214.6389,300.4028,214.5894,300.3104L214.5894,300.3104z" />
			</g>
			<g>
				<path class="st1" d="M213.2355,293.3155c-1.2932-0.5622-2.9215-0.0843-4.228,0.2504c-1.5293,0.392-3.002,1.0108-4.3102,1.895
				c-0.1709,0.1156-0.0109,0.3961,0.1777,0.3145c1.1264-0.4865,2.2296-1.0142,3.3864-1.4263
				c1.3871-0.4943,3.4414-1.3925,4.9133-0.8948C213.2658,293.4854,213.3265,293.355,213.2355,293.3155L213.2355,293.3155z" />
			</g>
			<g>
				<path class="st1" d="M229.8091,294.0977c-0.2453,0.1266-0.4902,0.2528-0.7355,0.379c-0.435-0.1235-0.8689-0.247-1.3031-0.3705
				c0.0467,0.0423,0.0924,0.0846,0.1392,0.1269c-0.1637-0.6553-0.3268-1.311-0.4902-1.9669
				c-0.0355,0.0604-0.0706,0.1211-0.1064,0.1815c0.5704-0.3135,1.1411-0.6267,1.7111-0.9398
				c-0.073-0.0054-0.146-0.0109-0.219-0.0167c0.4401,0.4564,0.8794,0.9125,1.3188,1.3696
				c-0.0146-0.0713-0.0297-0.1426-0.0447-0.2139c-0.3309-1.574-2.8802-1.91-3.0453-0.0566
				c-0.0065,0.0706-0.0126,0.1416-0.0191,0.2122c-0.0597,0.6737,0.2497,1.414,0.9211,1.6763
				c1.8472,0.7215,3.5648-1.3502,2.2235-2.974c-0.4824-0.584-1.4699-1.0176-2.2119-0.6137
				c-0.0665,0.0362-0.133,0.0723-0.1999,0.1088c-0.6676,0.363-1.3785,1.1213-1.1728,1.9789
				c0.0177,0.072,0.0348,0.1433,0.0518,0.2146C226.9852,294.6872,228.7168,295.3476,229.8091,294.0977L229.8091,294.0977z" />
			</g>
			<g>
				<path class="st1" d="M223.142,293.3994c1.6504-0.1914,1.3546-2.7567-0.2985-2.5646
				C221.1934,291.0268,221.4889,293.5921,223.142,293.3994L223.142,293.3994z" />
			</g>
			<g>
				<path class="st1" d="M224.8937,286.8561c3.6863-0.4288,3.0259-6.1574-0.6662-5.7283
				C220.5415,281.5566,221.2013,287.2856,224.8937,286.8561L224.8937,286.8561z" />
			</g>
			<g>
				<path class="st1" d="M217.573,284.6193c0.028,0.0273,0.056,0.0546,0.0843,0.0815c1.5109,1.4655,3.685-1.8916,1.1148-2.5558
				c-0.0358-0.0092-0.072-0.0184-0.1078-0.0276C217.1507,281.7265,216.683,283.7559,217.573,284.6193L217.573,284.6193z" />
			</g>
			<g>
				<path class="st1" d="M219.2312,280.0058c1.4553-0.1692,1.1943-2.4306-0.2627-2.2614
				C217.5133,277.914,217.7739,280.1754,219.2312,280.0058L219.2312,280.0058z" />
			</g>
			<g>
				<path class="st1" d="M215.1086,279.0653c-1.1895-0.7822-2.7932,0.5581-1.8537,1.8077
				C214.4407,282.4504,216.6608,280.0856,215.1086,279.0653L215.1086,279.0653z" />
			</g>
			<g>
				<path class="st1" d="M208.7414,277.3757c2.0369-0.2371,1.6722-3.4031-0.3681-3.166
				C206.336,274.4467,206.7011,277.6128,208.7414,277.3757L208.7414,277.3757z" />
			</g>
			<g>
				<path class="st1" d="M212.9015,284.2536c1.6112-0.1873,1.3229-2.6919-0.291-2.5042
				C210.9987,281.937,211.2872,284.4412,212.9015,284.2536L212.9015,284.2536z" />
			</g>
			<g>
				<path class="st1" d="M206.0826,283.9009c3.2977-0.3838,2.7072-5.51-0.5963-5.1259
				C202.1886,279.1588,202.7791,284.285,206.0826,283.9009L206.0826,283.9009z" />
			</g>
			<g>
				<path class="st1" d="M209.2834,287.6656c1.1834-0.1378,0.9716-1.9769-0.2139-1.8391
				C207.8865,285.9644,208.098,287.8034,209.2834,287.6656L209.2834,287.6656z" />
			</g>
			<g>
				<path class="st1" d="M207.2128,289.7073c0.117,0.2306,0.2333,0.4612,0.3503,0.6911c-0.1685,0.2811-0.337,0.5625-0.5052,0.8433
				c-0.0959,0.0307-0.191,0.0611-0.2869,0.0914c-0.3397-0.0962-0.6792-0.1931-1.0193-0.2896
				c-0.1238-0.2634-0.2477-0.5271-0.3722-0.7904c0.1924-0.3217,0.3851-0.643,0.5779-0.9644
				c-0.071,0.0481-0.1419,0.0959-0.2122,0.144c0.6178,0.0078,1.2359,0.0157,1.854,0.0229c-0.0627-0.0403-0.1255-0.0808-0.188-0.1214
				c0.189,0.4813,0.378,0.963,0.567,1.444c0.0017-0.0733,0.0038-0.1467,0.0052-0.22c-0.3193,0.4036-0.6397,0.8078-0.9593,1.2117
				c0.0713-0.0222,0.1429-0.0447,0.2142-0.0669c-0.525-0.0757-1.05-0.1508-1.575-0.2265c0.0529,0.0522,0.1051,0.1044,0.1573,0.1563
				c-0.1955-0.4981-0.391-0.9965-0.5867-1.4948c0.1999-0.2838,0.4001-0.5673,0.6-0.8505c0.4247,0.0061,0.8491,0.012,1.2738,0.0184
				c0.1048,0.0941,0.2094,0.1886,0.3145,0.2828c0.1037,0.4138,0.2077,0.8276,0.3111,1.241
				c0.0068-0.0723,0.0133-0.1443,0.0198-0.2163c0.1573-1.7251-2.4357-2.7222-3.0835-0.8975
				c-0.5468,1.5399,0.6837,3.2073,2.3954,2.6107c1.4536-0.5066,1.7862-2.4138,0.5605-3.3284
				c-0.4339-0.3241-1.063-0.4704-1.5743-0.2262c-0.0676,0.0317-0.1351,0.0645-0.202,0.0962
				c-0.5915,0.2821-1.095,0.9344-0.9671,1.632c0.1371,0.7464,0.4274,1.255,1.1656,1.5358c0.6864,0.2607,1.3089,0.0641,1.7995-0.4482
				c1.2601-1.3171-0.1927-3.6672-1.9192-2.8331c-1.5876,0.7665-0.9875,3.4229,0.8603,3.0436
				c0.5475-0.1126,1.1216-0.61,0.9838-1.2427C207.6907,290.1815,207.5788,289.8823,207.2128,289.7073L207.2128,289.7073z" />
			</g>
			<g>
				<path class="st1" d="M204.6624,297.6114c2.2501-0.2617,1.8473-3.7596-0.4066-3.4973
				C202.005,294.376,202.4082,297.8737,204.6624,297.6114L204.6624,297.6114z" />
			</g>
			<g>
				<path class="st1" d="M211.3947,296.3403c0.8924-0.1037,0.7327-1.4908-0.1611-1.3871
				C210.3413,295.0573,210.501,296.444,211.3947,296.3403L211.3947,296.3403z" />
			</g>
			<g>
				<path class="st1" d="M209.4035,300.4997c2.8324-0.3292,2.3255-4.7319-0.5117-4.402
				C206.0591,296.4273,206.5663,300.8296,209.4035,300.4997L209.4035,300.4997z" />
			</g>
		</g>
		<g>
			<path class="st1" d="M279.8819,286.1486c-1.3979-3.209-3.6207-6.1892-6.2986-8.4458
			c-8.1357-6.8568-17.9327-6.0623-26.5272-11.1735c-6.2601-3.7231-11.1513-9.7513-14.8918-16.0159
			c-4.0073-6.7101-7.1559-14.4449-8.8254-21.7916c0.584,2.5687,4.5251,6.6661,6.3,8.6361c2.2945,2.5466,4.8383,4.8997,7.5377,6.8697
			c5.6342,4.1113,11.8438,5.5158,17.6796,8.8139C266.7698,259.7742,276.3458,272.914,279.8819,286.1486" />
			<g>
				<g>
					<path class="st1" d="M279.3955,286.7176c-0.7791-11.5146-9.7431-18.2363-13.5846-28.4816
					c-3.1691-8.4529-1.5518-17.7079-3.6273-26.3668c-2.6994-11.2594-10.9013-19.9246-18.8711-27.8416
					c-3.8125-3.7866-7.681-7.5179-11.5085-11.2894c-2.1597-2.1277-4.2812-4.302-6.4805-6.3891
					c-1.5777-1.4983-1.0602-3.4949-0.2098-0.0119c2.0301,8.3161,0.8938,16.7142,1.8404,25.1767
					c1.1534,10.3087,4.2969,20.54,10.1733,29.1515c11.6221,17.0311,35.282,22.247,43.4832,41.9713
					c0.2466,0.5932-0.613,1.0616-0.9006,0.4653c-9.809-20.2903-35.1136-24.9508-46.4286-44.3323
					c-4.5671-7.8229-7.1242-16.6337-8.1053-25.6075c-1.0674-9.7666,2.1409-21.4105-3.1879-30.1452
					c-0.397-0.6512,0.552-1.2175,1.0507-0.729c8.8511,8.6644,18.047,17.1054,26.4446,26.2147
					c5.8634,6.3601,11.2482,13.4488,13.5307,21.9291c2.9099,10.8139,0.4131,22.0409,6.093,32.2238
					c4.4037,7.8948,11.0575,14.4326,10.5342,24.0714C279.6326,286.8878,279.4057,286.8725,279.3955,286.7176L279.3955,286.7176z" />
				</g>
				<g>
					<path class="st1" d="M222.6637,182.628c11.008,10.9739,16.4723,26.794,19.5162,41.7103
					c4.154,20.3551,16.9301,34.4664,32.5417,47.5263c0.6744,0.5639,0.0396,1.6924-0.7566,1.1933
					c-13.1111-8.2203-26.6643-20.9179-31.2867-36.1625c-2.5374-8.3687-3.3353-17.1351-6.0217-25.4898
					c-3.3394-10.3841-8.3366-19.5108-14.2181-28.6214C222.3502,182.6475,222.558,182.5226,222.6637,182.628L222.6637,182.628z" />
				</g>
				<g>
					<path class="st1" d="M223.8017,186.3092c11.4041,7.7502,20.0627,18.7579,24.2958,31.9635
					c2.8079,8.7593,3.0409,18.0459,6.6146,26.6063c3.7774,9.0482,9.9829,16.3969,15.8705,24.1052
					c0.2026,0.2647-0.1446,0.5898-0.3868,0.3503c-10.3002-10.176-17.5373-23.0565-20.132-37.306
					c-3.4035-18.691-10.6594-34.1126-26.328-45.6153C223.6728,186.3668,223.7355,186.2645,223.8017,186.3092L223.8017,186.3092z" />
				</g>
				<g>
					<path class="st1" d="M225.6592,186.5678c11.8684,8.95,23.9168,19.886,29.841,33.8206
					c7.1164,16.7384,2.7199,36.8062,17.4527,50.0729c0.2565,0.2306-0.1126,0.6686-0.392,0.4657
					c-12.7058-9.226-12.1095-25.8971-14.9051-39.8177c-3.9312-19.5728-18.3895-31.3706-32.173-44.3316
					C225.3706,186.6718,225.5347,186.4736,225.6592,186.5678L225.6592,186.5678z" />
				</g>
				<g>
					<path class="st1" d="M224.2186,186.8519c7.7014,8.2152,6.5061,19.4306,7.3367,29.8311
					c1.5184,19.0032,16.5398,31.2287,28.62,44.3353c0.22,0.2385-0.0965,0.6301-0.3725,0.4424
					c-11.1022-7.5339-22.7338-20.1985-27.4888-32.935c-5.1201-13.7153,0.8289-28.9516-8.1865-41.5913
					C224.0828,186.8717,224.163,186.7926,224.2186,186.8519L224.2186,186.8519z" />
				</g>
			</g>
		</g>
		<g>
			<path class="st1" d="M165.1865,345.3273c0.8191-3.4031,0.8419-7.1212,0.0662-10.5356
			c-2.3576-10.3755-10.6536-15.6474-14.4292-24.9061c-2.7509-6.7445-3.019-14.5029-2.2273-21.7561
			c0.8481-7.7696,2.9989-15.8391,6.0957-22.7072c-1.0828,2.4012-0.4083,8.0467-0.1798,10.6887
			c0.2958,3.4144,0.9071,6.8257,1.8728,10.0249c2.0168,6.6766,6.1247,11.5405,8.7924,17.6901
			C170.6245,316.3798,170.3431,332.6362,165.1865,345.3273" />
			<g>
				<g>
					<path class="st1" d="M164.4555,345.488c6.3202-9.6571,3.22-20.4233,6.3311-30.9135c2.567-8.6552,9.4368-15.0638,13.0006-23.224
					c4.6343-10.6106,3.3138-22.4687,1.7272-33.59c-0.7587-5.3193-1.5958-10.6287-2.376-15.9452
					c-0.4408-2.9996-0.8225-6.0135-1.3188-9.0042c-0.3562-2.1467,1.2608-3.4274-0.1603-0.1358
					c-3.3936,7.859-9.3631,13.8739-13.7091,21.1963c-5.2941,8.9206-8.9541,18.9789-9.4566,29.392
					c-0.9944,20.5952,14.739,39.0195,9.3914,59.701c-0.1607,0.6219-1.1285,0.4776-0.9992-0.1719
					c4.4061-22.102-12.974-41.0748-10.3186-63.36c1.0722-8.9947,4.3436-17.5659,8.9708-25.3175
					c5.0358-8.4355,14.6148-15.7921,15.629-25.9735c0.0757-0.759,1.1741-0.6389,1.2778,0.0519
					c1.8387,12.2487,4.0868,24.5271,5.2958,36.8577c0.8443,8.6088,0.8675,17.5114-2.4238,25.6529
					c-4.197,10.3827-12.9576,17.8347-14.5643,29.3835c-1.2454,8.9537,0.1214,18.1814-6.1063,25.556
					C164.5418,345.7667,164.3705,345.618,164.4555,345.488L164.4555,345.488z" />
				</g>
				<g>
					<path class="st1" d="M181.9403,228.2389c2.1673,15.3916-3.0098,31.3078-9.5732,45.0439
					c-8.9565,18.7449-7.2695,37.7057-2.6868,57.5372c0.1982,0.8562-0.9886,1.3744-1.3229,0.4957
					c-5.5056-14.4623-8.6645-32.7638-3.1623-47.7136c3.0204-8.2063,7.6687-15.6819,10.5615-23.9673
					c3.5955-10.2981,5.1105-20.5921,5.9098-31.4071C181.6786,228.0652,181.9191,228.0908,181.9403,228.2389L181.9403,228.2389z" />
				</g>
				<g>
					<path class="st1" d="M180.6289,231.862c4.4269,13.0579,4.6991,27.0604,0.116,40.149
					c-3.0398,8.6812-8.4526,16.2311-10.7617,25.2152c-2.4405,9.4968-1.9192,19.1007-1.8687,28.8005
					c0.002,0.3333-0.4711,0.3828-0.5199,0.0464c-2.0836-14.3286-0.0928-28.9683,6.4266-41.9017
					c8.5522-16.9645,12.0597-33.6432,6.4924-52.2664C180.4915,231.8303,180.6034,231.7863,180.6289,231.862L180.6289,231.862z" />
				</g>
				<g>
					<path class="st1" d="M181.9556,233.1877c4.0735,14.2955,7.0939,30.2848,3.4205,44.9736
					c-4.4129,17.6451-20.018,31.0063-16.2608,50.4727c0.0655,0.3384-0.4933,0.4653-0.5936,0.1351
					c-4.5756-15.0204,5.95-27.9627,12.1113-40.7548c8.6627-17.9862,4.2386-36.1151,1.0551-54.7652
					C181.6622,233.0966,181.913,233.0376,181.9556,233.1877L181.9556,233.1877z" />
				</g>
				<g>
					<path class="st1" d="M180.6344,232.5464c1.1923,11.197-6.5225,19.4248-12.1293,28.224
					c-10.2442,16.0769-5.629,34.887-3.8923,52.6263c0.0317,0.3234-0.4568,0.4448-0.5639,0.1289
					c-4.3161-12.7041-5.9624-29.8205-2.0779-42.849c4.183-14.0294,18.1145-22.5997,18.5413-38.1192
					C180.514,232.4802,180.6259,232.4652,180.6344,232.5464L180.6344,232.5464z" />
				</g>
			</g>
		</g>
		<g>
			<path class="st1" d="M296.5999,189.2095c5.7471-9.0086,6.6514-21.6128,4.2946-32.0355
			c-4.7162-20.8548-24.839-34.9985-31.8489-55.1984c0.0938,13.4986,0.292,27.4841,6.0115,39.7113
			c3.7739,8.0685,9.7383,14.8775,14.5381,22.3807C294.3948,171.5712,298.1292,180.4349,296.5999,189.2095" />
			<g>
				<path class="st1" d="M296.3136,186.9648c6.649-6.8138,12.1051-15.1992,15.641-24.0298
				c5.8931-14.7178,3.7552-29.9382,0.5308-45.0159c-0.758-3.5464-1.5914-7.0727-2.522-10.5772
				c-0.3681-1.3867-1.0172-2.8972-1.1956-4.316c-0.2528-2.0086,0.5656-0.6652,0.5887-0.8358
				c-0.8569,6.3174-2.5186,11.1138-5.5103,16.8615c-4.2133,8.0934-6.9066,15.6307-6.8131,24.9027
				c0.0747,7.4268,1.18,14.7874,1.1428,22.2262c-0.0031,0.5455-0.8126,0.6256-0.8583,0.0652
				c-0.8593-10.5475-3.0412-21.4815-1.0446-32.0297c2.2917-12.1061,12.4196-21.5654,11.562-34.3647
				c-0.0508-0.7631,1.1083-1.048,1.3424-0.2804c4.9935,16.3935,10.6942,36.0857,7.3245,53.2962
				c-2.5643,13.0975-10.2361,25.278-19.9522,34.2948C296.4085,187.2927,296.1734,187.1088,296.3136,186.9648L296.3136,186.9648z" />
			</g>
			<g>
				<path class="st1" d="M308.8281,102.5368c3.5164,16.0005-3.8067,30.4212-1.8376,46.1925
				c1.6013,12.8239-0.2211,26.3177-9.4627,36.0588c-0.6577,0.6932-2.0031-0.0154-1.4908-0.9487
				c3.5205-6.4153,6.8356-12.6946,8.239-19.9716c1.3215-6.854,0.2419-13.6119,0.509-20.5035
				c0.2245-5.7839,2.0823-11.0165,3.3039-16.6132c1.7599-8.0671,1.7084-16.0544,0.7096-24.2085
				C308.796,102.5259,308.8247,102.5198,308.8281,102.5368L308.8281,102.5368z" />
			</g>
			<g>
				<path class="st1" d="M310.8967,107.3785c-0.0706,7.5237,2.0983,14.5469,2.7693,21.9772
				c0.7351,8.148-2.2078,15.9104-2.332,24.0369c-0.1917,12.5267-3.7409,24.33-13.4393,32.8416
				c-0.3916,0.3432-0.9623-0.2961-0.6157-0.6751c5.7061-6.241,10.1699-12.8641,11.9929-21.2748
				c1.3141-6.0643,0.5045-12.2644,1.5313-18.3608c1.2444-7.3825,2.4732-13.877,1.3011-21.3993
				c-0.9016-5.7839-2.1532-11.286-1.3594-17.1539C310.7562,107.2854,310.8978,107.2905,310.8967,107.3785L310.8967,107.3785z" />
			</g>
			<g>
				<path class="st1" d="M307.932,105.9724c-0.2214,6.2741-0.655,12.4213-3.2012,18.2421
				c-3.5116,8.0262-5.4452,14.4988-4.5961,23.4024c1.066,11.1841,4.5698,22.5175,0.1423,33.3877
				c-0.0761,0.1869-0.3398,0.0532-0.278-0.13c4.3017-12.83-0.6328-25.3462-0.7846-38.3181
				c-0.0471-4.0694,0.4237-8.1469,1.8605-11.9748c3.2063-8.5423,6.2206-15.321,6.8268-24.611
				C307.903,105.9536,307.9326,105.955,307.932,105.9724L307.932,105.9724z" />
			</g>
			<g>
				<path class="st1" d="M289.4767,108.4804c1.5296,16.2038,3.7729,31.7533,8.6995,47.3186
				c0.1157,0.3643-0.3929,0.5264-0.5509,0.1921c-6.9325-14.6834-7.5964-31.5459-8.3939-47.4922
				C289.2235,108.3409,289.4616,108.3221,289.4767,108.4804L289.4767,108.4804z" />
			</g>
			<g>
				<path class="st1" d="M290.5287,106.5131c1.0121,0.7123,1.1981,1.9847,0.1747,2.8382c-1.3011,1.0858-3.3905-0.0276-3.3687-1.6784
				c0.029-2.245,2.7263-2.5517,4.1362-1.3789c1.429,1.1875,1.7503,3.8671-0.5544,4.2393c-2.0389,0.3292-4.8594-1.7548-3.8978-3.9435
				c0.9709-2.2088,3.8186-1.516,5.002,0.1068c1.3594,1.8646,0.306,4.839-2.2552,4.6162c-1.94-0.1692-3.9363-2.1355-3.4427-4.169
				c0.5874-2.4173,3.2674-2.5046,5.0082-1.2885c1.7732,1.239,2.0911,4.0984-0.0553,5.1767
				c-1.9724,0.9907-4.5391-0.6308-5.3206-2.4913c-0.9719-2.3153,0.6362-4.8499,3.1507-5.0409
				c5.6379-0.4285,6.8394,9.2819,0.7791,9.2143c-2.6346-0.0297-4.6551-3.0733-4.3788-5.539
				c0.3063-2.7308,2.9593-4.6541,5.6376-3.5853c2.7246,1.0872,4.27,4.6067,2.4118,7.1406
				c-1.7749,2.4214-5.3531,2.4534-6.9403-0.1781c-1.6006-2.6537,0.7505-6.2612,3.8684-5.3466
				c2.0754,0.6089,3.0457,3.7074,0.9255,4.9212c-0.5598,0.3203-1.4611,0.2057-1.6501-0.5376
				c0.0349,0.0215,0.0689,0.0426,0.1037,0.0641c0.4799,0.0239,0.9603,0.0484,1.4402,0.0727
				c-0.2453,0.0805-0.2487,0.0471-0.0113-0.0993c0.5097-0.3394,0.6243-0.8965,0.3428-1.6726
				c-0.3715-0.3138-0.7433-0.6284-1.1155-0.9426c-0.1003-0.0106-0.2006-0.0211-0.3012-0.0314
				c-0.4581,0.1627-0.9163,0.3251-1.3748,0.4875c-0.5308,1.7916,0.2766,1.8196,2.4227,0.0846
				c0.0396,0.0836,0.0924,0.1586,0.1583,0.2255c-0.4278-0.2002-0.8556-0.4008-1.2833-0.6014
				c-0.1934,0.0351-0.3868,0.0703-0.5803,0.1047c-0.3002,0.3558-0.6004,0.7109-0.9006,1.0664
				c0.1047,0.2279,0.114,0.2514,0.028,0.0696c0.1143,0.2511,0.3394,0.3691,0.6758,0.3544c0.3725-0.2576,0.7454-0.5154,1.1179-0.7733
				c-0.1406-0.8494-0.0634-1.1408,0.2313-0.875c0.8116,0.5905,0.2163,1.3103-1.7858,2.1604c-1.005,0.4445,0.2862-2.0932,1.56-1.9281
				c-0.5015,0.1078-1.0033,0.2163-1.5051,0.3241c-0.7082,1.022-0.5448,1.4815,0.4909,1.3775
				c0.3708-0.3353,0.7423-0.6713,1.1138-1.007c-0.0532,0.1122-0.1068,0.2245-0.1597,0.3364
				c-0.0536-0.6331-0.1068-1.2666-0.1603-1.9005c0.1521,0.364,0.4291,0.5543,0.831,0.5717
				c-0.5536,0.1999-1.107,0.3995-1.6606,0.5997c0.0587-0.0798,0.1173-0.1593,0.1757-0.2388
				c-0.1331,0.4152-0.2661,0.8303-0.3991,1.2455c0.0236,0.3882,0.3019,0.4145,0.8354,0.0798
				c0.1184-0.3694,0.2368-0.7392,0.3555-1.1087c-0.0338-0.3057-0.0673-0.6116-0.101-0.9173
				C290.1848,106.5775,290.3967,106.4203,290.5287,106.5131L290.5287,106.5131z" />
			</g>
			<g>
				<path class="st1" d="M296.1796,117.778c-2.2334,8.8787-1.3898,17.0103-0.2418,25.9258c0.0478,0.3708-0.4995,0.4653-0.626,0.131
				c-3.0978-8.1794-1.953-17.9866,0.7225-26.1028C296.0619,117.6493,296.2007,117.694,296.1796,117.778L296.1796,117.778z" />
			</g>
			<g>
				<path class="st1" d="M297.0399,118.3275c0.0488,0.1126,0.0652,0.2344,0.0901,0.3544c0.1361,0.6519-0.657,0.9924-1.1585,0.801
				c-0.2145-0.0696-0.4199-0.16-0.6164-0.2698c-0.8334-0.4152-0.9439-1.5678-0.1777-2.114
				c1.7033-1.2155,3.9421,0.8467,2.4633,2.5234c-1.4167,1.6064-3.775-0.4213-2.7663-2.1826c1.0088-1.7609,3.7511-0.715,3.135,1.2789
				c-0.7092,2.2972-3.6416,1.0203-3.6689-0.9825c-0.0123-0.874,0.77-1.8568,1.7534-1.5798
				c1.1329,0.3193,1.8981,1.0302,1.9602,2.2528c0.0836,1.6354-2.158,2.0734-2.7663,0.5782
				c-0.0307-0.0048-0.0614-0.0089-0.0918-0.014c0.7058-0.4882,1.4113-0.976,2.1167-1.4641c-0.0594-0.057-0.119-0.1143-0.1784-0.1712
				c-0.3521-0.1129-0.7044-0.2262-1.0568-0.3391c0.1043-0.0041,0.2091-0.0085,0.3131-0.0126
				c-0.3377,0.1736-0.6758,0.3473-1.0135,0.5209c0.0426-0.0563,0.0853-0.1126,0.1279-0.1682c-0.1122,0.35-0.2245,0.7-0.3364,1.0497
				c-0.0017-0.0706-0.0031-0.1419-0.0048-0.2125c0.1726,0.336,0.3452,0.672,0.5182,1.0077
				c-0.0457-0.0474-0.0921-0.0952-0.1378-0.1426c0.3463,0.1112,0.6925,0.2217,1.0388,0.3329
				c-0.0802,0.0143-0.1603,0.0283-0.2405,0.0426c0.3302-0.1699,0.6604-0.3398,0.9904-0.5097
				c-0.0249,0.0515-0.0502,0.1034-0.0754,0.1552c0.0178-0.3521,0.0355-0.7041,0.0532-1.0558
				c0.0334,0.0781,0.0672,0.1562,0.1007,0.234c-0.2409-0.2664-0.4821-0.5328-0.7232-0.7993
				c-0.0638-0.015-0.1283-0.0297-0.1924-0.0443c-0.3752,0.2599-0.7512,0.5199-1.1271,0.7795
				c0.0635-0.1129,0.1266-0.2258,0.1897-0.3387c-0.0167,0.3353-0.0334,0.6703-0.0505,1.0057
				c-0.045-0.1238-0.0898-0.2473-0.1348-0.3708c0.2282,0.2521,0.4564,0.5049,0.6847,0.7573
				c-0.1235-0.043-0.2466-0.0863-0.3698-0.1293c0.3241,0.016,0.6478,0.0327,0.9722,0.0491
				c-0.1283,0.0368-0.2565,0.0733-0.3845,0.1095c0.2722-0.4162,0.5441-0.8317,0.816-1.2475
				C297.1573,118.6281,296.8782,117.9523,297.0399,118.3275L297.0399,118.3275z" />
			</g>
		</g>
	</g>
</svg>